<svg version="1" xmlns="http://www.w3.org/2000/svg" width="103" height="10" viewBox="0 0 103px 10px">
	<path 
		transform="scale(.01) translate(-8400, -11350) rotate(90, 9350, 10235)" 
		d="M10537 10672 
		c-4 -317 -7 -671 -7 -787 
		l0 -210 180 -285 180 -285 0 -3677 
		c-1 -2023 -3 -3678 -7 -3678 -16 0 -98 78 -153 147 -66 81 -185 255 -214 311 -45 87 -13 -6 133 -394 87 -230 191 -506 231 -612 40 -105 76 -192 80 -192 4 0 33 71 65 158 33 86 138 367 235 624 98 258 175 468 172 468 -8 0 -29 -29 -157 -221 -68 -102 -150 -212 -182 -245 
		l-58 -59 -3 30 
		c-1 17 4 143 11 280 7 138 9 252 5 253 -4 2 -8 1539 -8 3415 
		l0 3412 175 268 175 268 0 761 
		c0 631 -2 759 -13 755 -8 -3 -64 -39 -124 -81 -61 -42 -114 -76 -117 -76 -3 0 -6 51 -6 113 
		l0 112 -45 -75 
		c-38 -63 -45 -71 -45 -47 
		l0 28 -72 -3 -73 -3 0 -68 
		c0 -37 -3 -67 -6 -67 -3 0 -77 51 -165 113 -87 62 -164 116 -170 119 -8 5 -13 -159 -17 -570
		z"/>
</svg>