<?xml version="1.0" standalone="no"?>
<!DOCTYPE svg PUBLIC "-//W3C//DTD SVG 20010904//EN"
 "http://www.w3.org/TR/2001/REC-SVG-20010904/DTD/svg10.dtd">
<svg version="1.0" xmlns="http://www.w3.org/2000/svg"
 width="912.000000pt" height="1280.000000pt" viewBox="0 0 912.000000 1280.000000"
 preserveAspectRatio="xMidYMid meet">
<metadata>
Created by potrace 1.15, written by Peter Selinger 2001-2017
</metadata>
<g transform="translate(0.000000,1280.000000) scale(0.100000,-0.100000)"
fill="#000000" stroke="none">
<path d="M3438 12773 c7 -3 16 -2 19 1 4 3 -2 6 -13 5 -11 0 -14 -3 -6 -6z"/>
<path d="M3530 12751 c45 -12 64 -22 62 -32 -2 -8 -52 -102 -111 -209 -119
-214 -1849 -3331 -2614 -4710 -264 -476 -518 -934 -564 -1017 l-85 -153 -86 0
c-94 0 -132 -7 -132 -22 0 -6 29 -38 65 -73 36 -34 65 -65 65 -68 0 -4 -9 -7
-20 -7 -17 0 -20 -7 -20 -41 0 -22 5 -49 11 -60 9 -18 3 -28 -41 -75 -29 -30
-49 -58 -45 -62 3 -4 43 -9 88 -12 l81 -5 87 -155 c47 -85 667 -1197 1376
-2470 710 -1273 1439 -2582 1621 -2908 198 -355 326 -595 319 -597 -7 -3 -43
-13 -82 -24 -70 -20 -55 -28 20 -12 22 5 56 12 75 15 150 23 524 134 735 217
135 54 415 191 544 266 1048 615 1869 1718 2342 3148 236 711 362 1383 424
2257 6 72 10 87 25 91 16 4 18 15 18 71 0 41 -4 66 -11 66 -7 0 -7 4 1 12 15
15 16 68 1 68 -8 0 -8 4 0 14 7 8 11 27 10 43 -6 72 -54 66 481 61 263 -2 482
-7 486 -10 3 -4 1 -35 -5 -69 -6 -35 -9 -64 -7 -66 7 -7 456 182 457 191 0 10
-462 198 -469 191 -3 -2 3 -32 12 -66 10 -33 15 -63 12 -66 -3 -3 -217 -8
-475 -11 -423 -4 -471 -3 -492 12 -13 9 -18 16 -11 16 7 0 12 13 12 30 0 17
-5 30 -11 30 -8 0 -8 4 -1 13 14 17 14 137 -1 137 -8 0 -8 3 1 12 19 19 15 59
-6 65 -17 4 -20 20 -25 166 -3 89 -13 241 -22 337 -183 2039 -995 3719 -2260
4675 -383 290 -809 513 -1265 661 -196 64 -570 156 -620 153 -8 0 14 -9 50
-18z m248 -72 c1255 -406 2280 -1392 2921 -2811 373 -826 611 -1796 680 -2773
22 -312 22 -315 6 -321 -21 -8 -19 -51 3 -63 9 -6 12 -11 5 -11 -15 0 -15
-132 1 -142 8 -6 8 -8 -1 -8 -8 0 -13 -13 -13 -30 0 -16 5 -30 11 -30 8 0 8
-5 -1 -15 -11 -13 -396 -15 -3351 -15 l-3338 0 -78 79 -78 80 -80 5 c-44 3
-114 5 -156 6 l-76 0 437 788 c398 716 1930 3476 2650 4775 228 411 297 527
312 527 10 0 76 -18 146 -41z m-3636 -6321 c-9 -9 -15 -9 -24 0 -9 9 -7 12 12
12 19 0 21 -3 12 -12z m7238 -3 c0 -8 5 -15 12 -15 9 0 9 -3 0 -12 -16 -16
-15 -68 1 -68 8 0 8 -3 -2 -9 -10 -6 -12 -20 -8 -45 3 -20 2 -36 -4 -36 -13 0
-11 -47 2 -56 8 -4 8 -9 0 -17 -15 -15 -14 -48 3 -61 12 -9 13 -36 5 -161 -94
-1559 -572 -2984 -1354 -4040 -608 -821 -1374 -1394 -2280 -1706 -77 -26 -143
-45 -146 -41 -3 4 -217 387 -476 852 -436 783 -1090 1957 -2407 4320 l-526
945 175 5 175 5 77 78 78 77 3337 0 c2960 0 3338 -2 3338 -15z"/>
<path d="M3665 12609 c-4 -6 -5 -12 -2 -15 2 -3 7 2 10 11 7 17 1 20 -8 4z"/>
</g>
</svg>
