<?xml version="1.0" standalone="no"?>
<!DOCTYPE svg PUBLIC "-//W3C//DTD SVG 20010904//EN"
 "http://www.w3.org/TR/2001/REC-SVG-20010904/DTD/svg10.dtd">
<svg version="1.0" xmlns="http://www.w3.org/2000/svg"
 width="706.000000pt" height="1280.000000pt" viewBox="0 0 706.000000 1280.000000"
 preserveAspectRatio="xMidYMid meet">
<metadata>
Created by potrace 1.15, written by Peter Selinger 2001-2017
</metadata>
<g transform="translate(0.000000,1280.000000) scale(0.100000,-0.100000)"
fill="#000000" stroke="none">
<path d="M4583 11976 c-69 -33 -87 -62 -94 -161 -4 -44 -3 -84 1 -90 4 -5 10
-33 14 -61 6 -48 0 -65 -120 -360 -655 -1604 -1682 -4105 -1688 -4111 -2 -2
-223 80 -492 183 -269 102 -512 194 -540 205 -50 19 -52 21 -59 67 -7 47 -17
62 -44 62 -10 0 -12 -10 -8 -44 l6 -44 -32 10 c-29 9 -34 17 -56 89 l-24 79
-51 19 c-28 10 -52 18 -53 17 -1 -1 9 -39 22 -86 13 -46 21 -89 18 -95 -4 -5
-27 -34 -51 -63 -26 -30 -41 -56 -36 -61 5 -5 31 -16 57 -26 l48 -18 42 41
c43 42 61 49 86 33 11 -7 10 -13 -5 -36 -17 -27 -17 -28 1 -41 28 -21 39 -17
59 16 14 25 22 29 39 24 44 -13 1038 -392 1043 -396 5 -5 -90 -238 -814 -2013
-407 -996 -661 -1623 -894 -2205 l-190 -475 -51 -47 c-29 -26 -58 -45 -64 -43
-7 2 -13 0 -13 -5 0 -5 -15 -30 -32 -55 -40 -57 -42 -113 -6 -177 27 -50 44
-48 40 2 -2 20 2 47 7 60 8 22 10 22 11 5 1 -15 5 -12 19 15 18 34 28 38 243
114 877 309 1361 579 1624 908 203 252 417 696 483 999 50 232 65 511 35 657
-16 79 -64 225 -105 320 l-23 53 143 357 c79 196 154 380 166 407 12 28 30 70
40 95 9 25 22 59 30 75 7 17 66 161 130 322 l118 292 36 -14 c20 -8 155 -59
301 -114 146 -55 522 -197 835 -316 314 -119 588 -223 610 -231 37 -13 47 -26
117 -142 l77 -128 153 -12 c84 -7 242 -19 350 -28 108 -9 204 -14 214 -12 19
3 -629 468 -653 468 -4 0 -48 -23 -97 -50 -63 -36 -95 -48 -110 -44 -23 7
-1526 577 -1698 644 l-107 41 14 37 c17 48 184 460 195 481 5 9 66 160 136
336 176 440 158 403 212 426 210 89 360 185 467 300 300 323 500 738 597 1239
29 151 31 424 4 575 -68 383 -225 805 -512 1376 -38 78 -62 135 -55 137 6 2
21 12 33 22 l23 19 -39 35 c-36 33 -56 39 -56 15 0 -6 4 -7 10 -4 14 8 69 -35
64 -50 -3 -7 -16 -17 -29 -23 -21 -10 -24 -8 -35 21 -7 18 -17 42 -22 54 -15
32 -1 72 38 108 19 17 34 34 34 38 0 14 -36 6 -87 -17z m-23 -546 c18 -63 59
-200 92 -305 130 -415 195 -688 219 -923 27 -261 -4 -598 -70 -766 -16 -39
-31 -87 -35 -106 -8 -48 -102 -237 -164 -330 -27 -41 -80 -104 -118 -140 -149
-142 -250 -195 -412 -217 -117 -16 -170 -40 -196 -91 -8 -15 -87 -207 -176
-427 -90 -220 -170 -418 -180 -440 -10 -22 -35 -83 -55 -135 -92 -235 -228
-560 -235 -560 -9 0 -512 189 -517 194 -5 4 10 40 949 2331 363 886 703 1715
756 1844 78 190 97 230 103 210 4 -13 22 -76 39 -139z m-1605 -4410 c132 -50
243 -95 247 -98 6 -6 -206 -543 -271 -687 -10 -22 -45 -110 -79 -195 -33 -85
-135 -337 -225 -560 -90 -223 -167 -415 -171 -428 -10 -30 18 -83 88 -170 109
-136 140 -238 140 -462 1 -174 -20 -279 -81 -417 -7 -18 -25 -63 -39 -100 -74
-198 -257 -453 -446 -624 -215 -192 -427 -334 -835 -555 -236 -128 -344 -189
-427 -242 -37 -24 -69 -42 -71 -40 -5 7 504 1268 1247 3088 104 256 244 598
310 760 128 314 261 638 310 758 23 56 35 73 47 69 9 -2 124 -46 256 -97z"/>
</g>
</svg>
