<?xml version="1.0" encoding="iso-8859-1"?>
<!DOCTYPE svg PUBLIC "-//W3C//DTD SVG 1.1//EN" "http://www.w3.org/Graphics/SVG/1.1/DTD/svg11.dtd">
<svg version="1.1" xmlns="http://www.w3.org/2000/svg" xmlns:xlink="http://www.w3.org/1999/xlink" 
	x="0px" y="0px" 
	width="128" height="128" 
	viewBox="0 0 186.333 186.333" 
	style="enable-background:new 0 0 186.333 186.333;" 
	xml:space="preserve">
<g>
<path d="M93.167,186.333C41.794,186.333,0,144.539,0,93.167C0,41.794,41.794,0,93.167,0c51.373,0,93.167,41.794,93.167,93.167
	C186.333,144.539,144.539,186.333,93.167,186.333z M10.125,97.76c2.31,42.208,36.241,76.138,78.448,78.448L10.125,97.76z
	 M10.502,83.995l91.836,91.836c17.53-1.931,33.433-9.331,45.967-20.454l-36.692-36.691c-5.188,3.762-11.563,5.981-18.448,5.981
	c-17.369,0-31.5-14.131-31.5-31.5c0-6.884,2.219-13.259,5.981-18.448L30.957,38.027C19.833,50.562,12.434,66.465,10.502,83.995z
	 M118.686,111.614l36.691,36.692c11.123-12.535,18.523-28.437,20.454-45.967L83.995,10.502c-17.53,1.931-33.434,9.331-45.968,20.454
	l36.691,36.691c5.188-3.762,11.563-5.981,18.448-5.981c17.369,0,31.5,14.131,31.5,31.5
	C124.667,100.051,122.447,106.426,118.686,111.614z M93.167,71.667c-11.855,0-21.5,9.645-21.5,21.5s9.645,21.5,21.5,21.5
	s21.5-9.645,21.5-21.5S105.021,71.667,93.167,71.667z M97.76,10.125l78.448,78.448C173.898,46.367,139.968,12.436,97.76,10.125z"/>
</g>
</svg>
