<?xml version="1.0" encoding="iso-8859-1"?>
<!-- Generator: Adobe Illustrator 16.0.0, SVG Export Plug-In . SVG Version: 6.00 Build 0)  -->
<!DOCTYPE svg PUBLIC "-//W3C//DTD SVG 1.1//EN" "http://www.w3.org/Graphics/SVG/1.1/DTD/svg11.dtd">
<svg version="1.1" id="Capa_1" xmlns="http://www.w3.org/2000/svg" xmlns:xlink="http://www.w3.org/1999/xlink" x="0px" y="0px"
	 width="364.489px" height="364.489px" viewBox="0 0 364.489 364.489" style="enable-background:new 0 0 364.489 364.489;"
	 xml:space="preserve">
<g>
	<path style="fill:#030303;" d="M364.42,6.173c-0.022-0.4-0.08-0.792-0.188-1.184c-0.063-0.212-0.144-0.409-0.229-0.615
		c-0.075-0.183-0.109-0.375-0.2-0.552c-0.08-0.157-0.206-0.274-0.304-0.42c-0.12-0.183-0.24-0.352-0.371-0.521
		c-0.252-0.3-0.515-0.552-0.812-0.792c-0.148-0.128-0.291-0.257-0.463-0.368c-0.383-0.252-0.783-0.44-1.212-0.598
		c-0.104-0.04-0.189-0.117-0.298-0.146c-0.022-0.005-0.04,0-0.062-0.005c-0.538-0.152-1.087-0.24-1.647-0.24h-0.148
		c-0.011,0-0.011,0-0.022,0H241.529H124.424c-0.258,0-0.48,0.117-0.732,0.146c-0.251-0.028-0.475-0.146-0.731-0.146H5.855
		C2.616,0.732,0,3.351,0,6.587v351.315c0,0.148,0.057,0.274,0.072,0.411c0.028,0.4,0.08,0.795,0.191,1.178
		c0.06,0.218,0.14,0.412,0.229,0.618c0.077,0.183,0.106,0.377,0.2,0.549c0.08,0.154,0.209,0.274,0.303,0.423
		c0.117,0.184,0.24,0.354,0.38,0.521c0.246,0.292,0.517,0.555,0.809,0.795c0.152,0.126,0.292,0.251,0.463,0.366
		c0.375,0.251,0.784,0.439,1.212,0.595c0.105,0.046,0.191,0.12,0.303,0.154c0.023,0.005,0.049,0.005,0.072,0.011
		c0.509,0.144,1.058,0.234,1.621,0.234H122.96c0.312,0,0.609-0.062,0.906-0.113c0.194,0.022,0.357,0.113,0.558,0.113h117.104
		h117.104c3.237,0,5.855-2.618,5.855-5.854V6.587C364.489,6.441,364.432,6.318,364.42,6.173z M235.673,352.047H133.939
		l48.691-72.585l53.043-79.068V352.047z M130.279,12.442H230.55L130.279,161.909V12.442z M11.71,12.442h105.395v169.11
		L11.71,338.661V12.442z M244.651,12.442h103.004L119.838,352.047H16.834L244.651,12.442z M352.779,352.047H247.384v-169.11
		L352.779,25.829V352.047z"/>
</g>
<g>
</g>
<g>
</g>
<g>
</g>
<g>
</g>
<g>
</g>
<g>
</g>
<g>
</g>
<g>
</g>
<g>
</g>
<g>
</g>
<g>
</g>
<g>
</g>
<g>
</g>
<g>
</g>
<g>
</g>
</svg>
